<svg xmlns="http://www.w3.org/2000/svg" width="176" height="144" viewBox="0 0 176 144">
  <ellipse cx="88" cy="120" rx="70" ry="18" fill="#000" opacity=".25"/>
  <path d="M26 72 88 42l62 30-62 36Z" fill="#cc3300"/>
  <path d="M26 72 88 108v28L26 100Z" fill="#a82a18"/>
  <path d="M150 72 88 108v28l62-36Z" fill="#7e1e14"/>
  <path d="M18 66 88 14v36L26 88Z" fill="#f5f5e8"/>
  <path d="M158 66 88 14v36l62 38Z" fill="#d8d8d8"/>
  <path d="M72 96h32v36H72Z" fill="#f5f5e8"/>
  <path d="M73 97 103 132M103 97 73 132" stroke="#7e1e14" stroke-width="5"/>
  <path d="M79 55h18v14H79Z" fill="#fff0c2"/>
  <path d="M36 77 88 108M140 77 88 108" stroke="#6e1910" stroke-width="3" opacity=".5"/>
</svg>
